<svg width="52" height="52" viewBox="0 0 52 52" fill="none" xmlns="http://www.w3.org/2000/svg">
<path d="M10.8335 32.5H8.66683C7.51756 32.5 6.41536 32.0435 5.6027 31.2308C4.79004 30.4181 4.3335 29.3159 4.3335 28.1667V8.66668C4.3335 7.51741 4.79004 6.4152 5.6027 5.60255C6.41536 4.78989 7.51756 4.33334 8.66683 4.33334H28.1668C29.3161 4.33334 30.4183 4.78989 31.231 5.60255C32.0436 6.4152 32.5002 7.51741 32.5002 8.66668V10.8333M23.8335 19.5H43.3335C45.7267 19.5 47.6668 21.4401 47.6668 23.8333V43.3333C47.6668 45.7266 45.7267 47.6667 43.3335 47.6667H23.8335C21.4403 47.6667 19.5002 45.7266 19.5002 43.3333V23.8333C19.5002 21.4401 21.4403 19.5 23.8335 19.5Z" stroke="#1E1E1E" stroke-width="3.5" stroke-linecap="round" stroke-linejoin="round"/>
</svg>
