<svg width="52" height="52" viewBox="0 0 52 52" fill="none" xmlns="http://www.w3.org/2000/svg">
<path d="M26.0002 28.1667C27.1968 28.1667 28.1668 27.1966 28.1668 26C28.1668 24.8034 27.1968 23.8333 26.0002 23.8333C24.8035 23.8333 23.8335 24.8034 23.8335 26C23.8335 27.1966 24.8035 28.1667 26.0002 28.1667Z" stroke="#1E1E1E" stroke-width="4" stroke-linecap="round" stroke-linejoin="round"/>
<path d="M26.0002 13C27.1968 13 28.1668 12.0299 28.1668 10.8333C28.1668 9.63671 27.1968 8.66666 26.0002 8.66666C24.8035 8.66666 23.8335 9.63671 23.8335 10.8333C23.8335 12.0299 24.8035 13 26.0002 13Z" stroke="#1E1E1E" stroke-width="4" stroke-linecap="round" stroke-linejoin="round"/>
<path d="M26.0002 43.3333C27.1968 43.3333 28.1668 42.3633 28.1668 41.1667C28.1668 39.97 27.1968 39 26.0002 39C24.8035 39 23.8335 39.97 23.8335 41.1667C23.8335 42.3633 24.8035 43.3333 26.0002 43.3333Z" stroke="#1E1E1E" stroke-width="4" stroke-linecap="round" stroke-linejoin="round"/>
</svg>
